<?xml version="1.0" standalone="no"?><!DOCTYPE svg PUBLIC "-//W3C//DTD SVG 1.1//EN" "http://www.w3.org/Graphics/SVG/1.1/DTD/svg11.dtd"><svg t="1657010923992" class="icon" viewBox="0 0 1024 1024" version="1.1" xmlns="http://www.w3.org/2000/svg" p-id="1438" xmlns:xlink="http://www.w3.org/1999/xlink" width="200" height="200"><defs><style type="text/css">@font-face { font-family: feedback-iconfont; src: url("//at.alicdn.com/t/font_1031158_u69w8yhxdu.woff2?t=1630033759944") format("woff2"), url("//at.alicdn.com/t/font_1031158_u69w8yhxdu.woff?t=1630033759944") format("woff"), url("//at.alicdn.com/t/font_1031158_u69w8yhxdu.ttf?t=1630033759944") format("truetype"); }
</style></defs><path d="M868.2 471.1c-4.6-8.1-8.9-15.7-13-23.3-23.7-43.6 12.9-131.9 27.6-159.4l19.3-35.9-38.5-13.6c-86.9-30.8-155.4-14-197.6 5.4-9.5 4.4-18.2 9.1-25.9 13.9-3.4-7.3-7.3-14.2-11.8-20.8-26.9-39.5-63.7-52.6-114.6-70.8-5.4-1.9-11-3.9-16.8-6-44.4-16.1-89.7-34.5-134.8-54.6l-44.9-20.1L313 135c-1.6 18.3-4.1 36.8-7.6 55-7.1 36.6-15.7 60.7-23.3 82-9.3 26-17.3 48.4-16.6 78.4 0.7 29.9 10.1 59.5 28.2 88.5-116.9 50.5-170.2 142-172.7 146.4l-23.4 41 46 10.5c68.7 15.6 154.5 64.9 179.3 120.4 16.5 37 32.5 68.9 60.8 84.4 12.5 6.9 25.6 9.7 38.7 9.7 22.8 0 46.2-8.4 68.8-18.2 36.3-15.9 72.8-49.2 108.6-99.1 4.4-6.2 8.6-12.2 12.4-18 0.3 1.1 0.6 2.3 0.9 3.4 1.9 7.4 3.7 14.7 5.3 22s3 14.5 4 21.5l0.4 2.6 0.3 2.5c0.2 1.7 0.3 3.3 0.5 4.9 0.1 0.8 0.1 1.5 0.1 2.3s0.1 1.4 0.1 2.3v4.9c-0.2 6.6-0.8 13.2-1.9 19.7-1.2 6.6-2.7 13.1-4.7 19.6s-4.4 12.9-7.2 19.1c-5.5 12.6-12.4 24.8-20.3 36.3-4 5.8-8.1 11.4-12.5 16.8-2.2 2.7-4.5 5.3-6.7 7.9-1.1 1.3-2.3 2.5-3.4 3.7-0.6 0.6-1.1 1.2-1.7 1.7l-0.8 0.8-0.4 0.3-0.2 0.2 43.4 41.5 0.8-0.9 0.6-0.7 1.2-1.4c0.8-0.9 1.5-1.8 2.2-2.7 1.4-1.8 2.8-3.5 4.1-5.2 2.6-3.5 5.2-7 7.6-10.6 4.9-7.1 9.4-14.4 13.7-21.8 8.5-14.9 15.9-30.6 21.5-47.1 2.8-8.3 5.3-16.7 7.2-25.3s3.2-17.4 4.1-26.3c0.8-8.9 0.8-17.9 0.4-26.9l-0.5-6.7c-0.1-1.1-0.2-2.3-0.4-3.5s-0.3-2.4-0.5-3.5c-0.4-2.2-0.7-4.5-1.2-6.7l-0.7-3.2-0.7-3.1c-1.9-8.3-4.2-16.2-6.5-24-2.4-7.8-4.9-15.4-7.5-23-2.6-7.5-5.2-14.8-8-22.2 42.8-0.6 118-3.7 186.1-16.5 37.8-7.1 63-23.6 74.8-49.1 21-45.4-8.8-97.8-37.5-148.5z m-26.1 119c-0.7 1.5-6.6 6.5-24.2 9.8-81.6 15.3-178.3 15.6-201.4 15.4-5.7-13.2-11.4-26.3-17.3-39.4-0.5-1.2-1.1-2.4-1.6-3.6l0.6-0.5 4.1-3.4c2.7-2.3 5.4-4.6 8-6.9 5.3-4.6 10.5-9.4 15.6-14.2 10.2-9.7 20.2-19.7 29.6-30.4 4.7-5.4 9.3-10.9 13.7-16.7 4.4-5.8 8.5-11.9 12.3-18.6 1.9-3.3 3.6-6.8 5.1-10.6 1.5-3.7 2.8-7.8 3.6-12 1-6.1 2.6-12.4 4.5-18.7 3.7-12.6 8.4-25.1 13.7-37.4 5.3-12.3 11.2-24.4 17.8-36.1 6.6-11.6 13.8-22.9 22.2-33.3 4.1-4.6 8.4-8.9 12.9-13.2 3.8-3.6 7.6-7.1 11.7-10.3 1.8-1.2 3.7-2.3 5.7-3.3-0.9 0.3-1.8 0.7-2.7 1.1 0.3-0.2 0.6-0.5 0.9-0.7-0.4 0.3-0.8 0.5-1.2 0.8-5.3 2.3-10.3 5.3-15 8.7-5.6 4-10.8 8.6-15.8 13.4-9.9 9.6-18.8 20.3-27 31.4-8.2 11.1-15.8 22.8-22.8 34.8-7 12-13.5 24.4-19.1 37.4-2.8 6.5-5.4 13.2-7.6 20.3-1.5 4.7-4.4 9.6-8 14.5-3.6 4.9-7.7 9.6-12.1 14.2-4.4 4.6-9.1 9-14 13.3-9.7 8.6-20.1 16.8-30.8 24.6-5.3 3.9-10.7 7.7-16.2 11.5-2.2 1.5-4.3 2.9-6.5 4.3-7.1-15.1-14.3-30.2-21.7-45.2-13.9-28.1-28.2-55.9-43.2-83.4s-30.6-54.7-47.3-81.1c-4.2-6.6-8.5-13.2-12.8-19.7-4.4-6.5-8.9-12.9-13.5-19.2-4.6-6.3-9.4-12.5-14.5-18.5s-10.4-11.8-16.2-17c5.4 5.7 10.2 11.8 14.7 18.1 4.5 6.3 8.8 12.8 12.8 19.4 4.1 6.6 8 13.3 11.8 20.1 3.8 6.8 7.5 13.6 11.1 20.5 14.5 27.5 27.7 55.6 40.4 84 12.6 28.4 24.6 57.1 36.1 85.9 8.4 20.9 16.4 42.1 24.2 63.2-3.4 0.2-6.7 0.4-10.1 0.6-7 0.5-14 1-21 1.8-14 1.5-28 3.5-42.1 7-0.9 0.2-1.8 0.4-2.6 0.7l-2.7 0.8c-1.8 0.5-3.5 1-5.3 1.6l-5.4 1.9-1.3 0.5-1.1 0.4-2.2 0.9c-2.9 1.2-6.1 2.2-9.2 3.3-3.1 1-6.3 2-9.5 3-12.8 3.8-26 7-39.2 9.9-13.2 2.8-26.5 5.3-39.9 7.2l-5 0.7-5 0.5c-2.5 0.3-5 0.5-7.5 0.7-5.4 0.1-10.8 0-16.2-0.1l-1-0.1-5.2-0.4c-13.7-1-27.4-1.5-41-2.4-6.8-0.5-13.6-1-20.4-1.9-3.4-0.4-6.7-0.9-10.1-1.6-1.7-0.4-3.3-0.8-4.9-1.3-1.6-0.5-3.2-1.2-4.5-2.4 0.6 0.7 1.3 1.2 2.1 1.7 0.7 0.4 1.4 0.8 2.2 1.1 1.6 0.7 3.2 1.3 4.8 1.8 3.3 1 6.6 1.8 10 2.6 6.7 1.5 13.5 2.6 20.3 3.7 13.5 2.2 27.1 4 40.6 6.1l5 0.9 2.5 0.5c0.8 0.2 1.8 0.3 2.7 0.4 3.7 0.6 7.2 0.7 10.7 0.9 3.5 0.1 7 0.2 10.5 0.1l5.2-0.1 5.2-0.2c13.9-0.6 27.6-1.9 41.4-3.6 0.6-0.1 1.2-0.2 1.8-0.2 1.4-0.1 2.9-0.3 4.3-0.4 7.1-0.7 14.2-1.8 21.3-3.3l0.5-0.1c4.4-0.7 8.8-1.5 13.2-2.4 3.4-0.7 6.9-1.4 10.3-2.2 3.5-0.9 6.9-1.6 10.4-2.6l2.6-0.7 1.3-0.4 1.1-0.3 4.4-1.1c1.5-0.4 3.1-0.6 4.6-0.9l2.3-0.5c0.8-0.1 1.6-0.2 2.4-0.4 12.7-1.9 25.9-2.7 39.2-2.9 6.6-0.1 13.3 0 20 0.1l10 0.3 5 0.2c1.6 0.1 3.3 0.2 4.8 0.3 3.8 10.7 7.5 21.3 11.1 31.9l-5 9.9c-0.1 0.3-14 27.6-36.4 58.7-28 39-55.5 65.1-79.8 75.8-33.4 14.6-43.1 12.8-45.8 11.3-9.9-5.5-24.4-37.8-30.6-51.7-22-49.2-66.9-85-100.6-106.4-23.8-15.1-50.3-28.2-76.9-38.4 28.1-31 77.4-73.7 151.1-95l54.3-15.7-38.2-41.6c-26.4-28.8-40.1-56.7-40.7-83.1-0.4-17 4.5-30.6 12.5-53.2 8-22.5 18-50.5 26.1-92.3 0.9-4.8 1.8-9.7 2.6-14.6 32.3 13.6 64.6 26.3 96.3 37.8 6 2.2 11.7 4.2 17.2 6.2 47.1 16.8 66.8 24.5 80.3 44.3 8.3 12.2 13 27.2 14.1 44.8l5.4 85.7 56-65c0.2-0.2 17.9-19.7 49.3-34.3 33.5-15.5 69.6-19.8 107.8-12.9-4.3 10.9-8.8 23.4-12.8 37-18.2 61.5-17.1 111.7 3.4 149.4 4.4 8.1 9.1 16.4 13.7 24.4 11.5 20.2 23.4 41.2 30.1 58.7 7.3 19.1 4.7 25.1 4.6 25.3z" fill="#25CF6B" p-id="1439"></path></svg>